<svg xmlns="http://www.w3.org/2000/svg" xmlns:xlink="http://www.w3.org/1999/xlink" version="1.1" x="0px" y="0px" width="512px" height="512px" viewBox="0 0 512 512" enable-background="new 0 0 512 512" xml:space="preserve"><path d="M256 90.002c91.74 0 166 74.2 166 165.998c0 91.739-74.245 165.998-166 166 c-91.738 0-166-74.242-166-165.998C90 164.3 164.2 90 256 90 M256 50.002C142.229 50 50 142.2 50 256 c0 113.8 92.2 206 206 205.998c113.77 0 206-92.229 206-205.998C462 142.2 369.8 50 256 50.002L256 50.002z M252.566 371.808c-28.21 9.913-51.466-1.455-46.801-28.547c4.667-27.098 31.436-85.109 35.255-96.079 c3.816-10.97-3.502-13.977-11.346-9.513c-4.524 2.61-11.248 7.841-17.02 12.925c-1.601-3.223-3.852-6.906-5.542-10.433 c9.419-9.439 25.164-22.094 43.803-26.681c22.27-5.497 59.5 3.3 43.5 45.858c-11.424 30.34-19.503 51.276-24.594 66.9 c-5.088 15.6 1 18.9 9.9 12.791c6.959-4.751 14.372-11.214 19.806-16.226c2.515 4.1 3.3 5.4 5.8 10.1 C295.857 342.5 271.2 365.2 252.6 371.808z M311.016 184.127c-12.795 10.891-31.76 10.655-42.37-0.532 c-10.607-11.181-8.837-29.076 3.955-39.969c12.794-10.89 31.763-10.654 42.4 0.5 C325.577 155.3 323.8 173.2 311 184.127z"/></svg>